<svg version="1.1" id="Layer_1" xmlns="http://www.w3.org/2000/svg" xmlns:xlink="http://www.w3.org/1999/xlink" x="0px" y="0px"
	 width="100%" viewBox="0 0 3000 500" enable-background="new 0 0 3000 500" xml:space="preserve">
<path fill="#FFFFFF" opacity="1.000000" stroke="none" 
	d="
M2225.000000,501.000000 
	C1483.333374,501.000000 742.166687,501.000000 1.000000,501.000000 
	C1.000000,334.333344 1.000000,167.666672 1.000000,1.000000 
	C1001.000000,1.000000 2001.000000,1.000000 3001.000000,1.000000 
	C3001.000000,167.666672 3001.000000,334.333344 3001.000000,501.000000 
	C2742.500000,501.000000 2484.000000,501.000000 2225.000000,501.000000 
M125.012787,288.948456 
	C125.019463,303.966034 125.026138,318.983643 125.009148,334.937958 
	C125.023270,341.964294 125.037384,348.990631 125.025398,356.951752 
	C125.016464,370.109833 124.961632,383.268097 125.011604,396.425934 
	C125.060753,409.364197 138.450623,422.980225 151.313187,422.985504 
	C249.083115,423.025513 346.853058,423.024109 444.623016,422.987305 
	C457.503815,422.982452 470.940582,409.407379 470.985626,396.489685 
	C471.036163,381.999481 470.965912,367.508820 470.992462,352.078186 
	C470.985474,331.722992 470.978516,311.367798 470.997345,290.072754 
	C470.993744,264.052429 470.990143,238.032089 470.997620,211.073013 
	C470.997437,189.767426 470.997498,168.461838 470.997009,147.156250 
	C470.996857,140.997604 471.099091,134.836792 470.970673,128.680801 
	C470.763397,118.743965 468.948792,117.003670 459.259857,117.003670 
	C428.633087,117.003662 398.006226,116.978897 367.379639,117.054375 
	C365.120972,117.059937 362.864044,117.787910 359.945282,118.053818 
	C340.461182,108.244102 319.929321,103.079422 298.000671,102.881966 
	C274.997528,102.674835 253.555252,108.250465 232.604126,117.656677 
	C231.155334,117.439011 229.706757,117.032997 228.257721,117.031364 
	C196.144287,116.995209 164.030777,116.999763 131.917297,117.016602 
	C130.466782,117.017365 129.016373,117.206078 127.409889,117.318123 
	C126.571785,121.785316 125.143242,125.956779 125.109924,130.139343 
	C124.903175,156.094681 125.009605,182.052490 125.007645,208.944672 
	C125.013725,235.301117 125.019806,261.657562 125.012787,288.948456 
z"/>
<path fill="#DADADA" opacity="1.000000" stroke="none" 
	d="
M470.948212,353.018372 
	C470.965912,367.508820 471.036163,381.999481 470.985626,396.489685 
	C470.940582,409.407379 457.503815,422.982452 444.623016,422.987305 
	C346.853058,423.024109 249.083115,423.025513 151.313187,422.985504 
	C138.450623,422.980225 125.060753,409.364197 125.011604,396.425934 
	C124.961632,383.268097 125.016464,370.109833 125.501472,356.478027 
	C156.405273,355.680786 186.832901,355.343719 217.261230,355.095978 
	C218.225403,355.088074 219.197067,355.999237 220.004547,356.753235 
	C208.631287,368.368469 201.299591,381.729736 197.940201,398.081848 
	C216.863342,391.037659 235.344559,390.505615 253.875763,394.967773 
	C266.805145,398.081055 279.540070,402.022949 292.312531,405.763062 
	C323.781433,414.977936 349.791534,404.083832 371.945374,382.653687 
	C380.620056,374.262390 389.943298,364.917969 390.367310,351.043091 
	C393.416443,351.727173 396.073517,352.899780 398.737732,352.916260 
	C422.807190,353.065491 446.877869,353.012238 470.948212,353.018372 
z"/>
<path fill="#E1E3E3" opacity="1.000000" stroke="none" 
	d="
M220.165253,356.481934 
	C219.197067,355.999237 218.225403,355.088074 217.261230,355.095978 
	C186.832901,355.343719 156.405273,355.680786 125.514526,356.010620 
	C125.037384,348.990631 125.023270,341.964294 125.486023,334.469055 
	C155.227158,334.000092 184.491928,333.919037 213.755035,334.102997 
	C217.394196,334.125824 219.727707,333.203918 221.433289,329.940796 
	C222.142471,329.986267 222.546478,330.023071 223.127808,330.263245 
	C223.604797,330.543671 223.904449,330.620728 224.204117,330.697754 
	C224.195709,330.469879 224.187302,330.242035 224.178879,330.014160 
	C223.752426,330.057648 223.325974,330.101105 223.051056,329.810944 
	C216.825363,324.007111 210.448105,318.536896 203.932465,312.755157 
	C191.814133,299.088104 181.354462,284.834442 177.422913,267.003235 
	C196.820435,266.993744 215.745865,266.984344 234.770584,267.436157 
	C234.869858,275.472595 234.869858,283.047882 234.869858,291.068909 
	C250.984879,291.068909 266.235077,291.068909 281.379364,291.068909 
	C282.853882,295.660461 281.824158,298.220673 277.376068,299.836548 
	C252.675262,308.809631 229.664352,305.653931 208.141342,290.763977 
	C206.773422,289.817627 205.411270,288.862976 203.186661,287.313263 
	C203.542099,289.107422 203.499008,289.638977 203.739288,289.955292 
	C204.339264,290.745026 205.001297,291.515320 205.754700,292.156830 
	C227.248901,310.458221 251.627502,315.713104 278.462189,307.102600 
	C298.257782,300.750763 312.314209,287.270874 322.080170,269.108032 
	C323.013763,270.584961 323.646545,271.846802 324.246948,273.477997 
	C321.088867,279.149292 317.963135,284.451233 314.907837,289.633667 
	C320.965057,289.633667 327.072968,289.633667 333.957977,289.633667 
	C327.902283,283.447449 326.901733,276.358398 327.028107,268.975342 
	C327.032349,269.020721 326.949158,269.058105 327.123169,268.918335 
	C327.247101,268.290436 327.197052,267.802246 327.100891,266.916382 
	C327.390839,265.124725 327.286163,263.264008 328.159637,262.439270 
	C329.716278,260.969543 330.703217,256.999451 334.047791,260.414948 
	C327.975189,269.994812 328.292969,279.513000 334.815216,286.985687 
	C340.811127,293.855347 350.576874,295.838470 358.921875,291.826569 
	C365.989655,288.428711 369.285126,282.316681 371.342529,275.003479 
	C385.913361,275.011566 400.005096,275.019684 414.082092,275.399109 
	C408.496948,289.909882 399.999451,302.131561 389.536255,313.043610 
	C388.970917,313.633240 387.874481,313.713654 387.063263,313.642822 
	C385.811737,309.720917 386.282867,304.703918 380.917328,304.335602 
	C377.255493,304.084229 373.404327,309.671539 372.958130,315.013519 
	C372.931152,315.336456 373.028168,315.669769 372.990479,316.183472 
	C372.913452,316.368683 372.908905,316.769806 372.636444,316.703461 
	C371.688904,316.050446 371.013855,315.463776 370.059998,314.610413 
	C367.996948,315.014130 365.526337,315.163025 364.550262,316.447571 
	C360.840881,321.329163 360.525757,327.137573 361.145935,333.268921 
	C361.071198,333.500183 361.253662,333.950684 361.181702,334.227936 
	C360.806824,334.977051 360.503906,335.448883 359.819702,335.973846 
	C355.639191,337.667847 351.906708,339.494049 348.020905,340.894836 
	C344.492920,342.166626 340.798035,342.975372 337.110168,343.607849 
	C336.147064,337.961182 334.202728,336.028076 331.177338,337.887848 
	C324.270660,342.133575 316.724579,342.768250 309.022797,342.237061 
	C298.245453,341.493774 287.482544,340.478119 276.736847,339.355286 
	C264.349030,338.060852 252.126724,338.973328 240.776978,344.026428 
	C233.500305,347.266113 227.008759,352.269318 220.165253,356.481934 
M293.958618,305.536987 
	C291.090363,306.846161 288.136780,308.003174 285.396179,309.539978 
	C284.311737,310.148041 283.018219,311.579987 282.985107,312.672119 
	C282.769592,319.787354 282.874390,326.912292 282.874390,334.268860 
	C293.314728,334.268860 303.328491,334.268860 313.443665,334.268860 
	C313.443665,319.688293 313.443665,305.505951 313.443665,291.591675 
	C307.112671,296.146820 300.852020,300.651337 293.958618,305.536987 
z"/>
<path fill="#F5F5F5" opacity="1.000000" stroke="none" 
	d="
M360.606323,118.180031 
	C362.864044,117.787910 365.120972,117.059937 367.379639,117.054375 
	C398.006226,116.978897 428.633087,117.003662 459.259857,117.003670 
	C468.948792,117.003670 470.763397,118.743965 470.970673,128.680801 
	C471.099091,134.836792 470.996857,140.997604 470.997009,147.156250 
	C470.997498,168.461838 470.997437,189.767426 470.524963,211.538177 
	C455.733307,211.998352 441.414276,211.993362 426.949768,211.603973 
	C426.575073,210.601379 426.217773,209.999756 426.135193,209.362534 
	C422.787659,183.526886 411.019440,161.853119 393.413025,143.058533 
	C383.894501,132.897690 372.579865,125.104118 360.606323,118.180031 
z"/>
<path fill="#F5F5F5" opacity="1.000000" stroke="none" 
	d="
M125.012108,208.009491 
	C125.009605,182.052490 124.903175,156.094681 125.109924,130.139343 
	C125.143242,125.956779 126.571785,121.785316 127.409889,117.318123 
	C129.016373,117.206078 130.466782,117.017365 131.917297,117.016602 
	C164.030777,116.999763 196.144287,116.995209 228.257721,117.031364 
	C229.706757,117.032997 231.155334,117.439011 232.641327,118.267258 
	C197.072769,138.481934 175.272919,168.170914 166.990204,208.071198 
	C152.658035,208.027542 138.835068,208.018524 125.012108,208.009491 
z"/>
<path fill="#E3E3E3" opacity="1.000000" stroke="none" 
	d="
M470.970337,352.548279 
	C446.877869,353.012238 422.807190,353.065491 398.737732,352.916260 
	C396.073517,352.899780 393.416443,351.727173 390.296631,350.580261 
	C389.219482,339.041718 388.601746,328.013733 388.227448,316.761780 
	C395.558685,307.993622 402.646454,299.449402 410.220337,290.933533 
	C430.794830,290.978790 450.883179,290.995697 470.971527,291.012604 
	C470.978516,311.367798 470.985474,331.722992 470.970337,352.548279 
z"/>
<path fill="#126D70" opacity="1.000000" stroke="none" 
	d="
M409.734222,290.905182 
	C402.646454,299.449402 395.558685,307.993622 388.212158,316.445618 
	C387.644012,315.579285 387.334625,314.805206 387.025238,314.031128 
	C387.874481,313.713654 388.970917,313.633240 389.536255,313.043610 
	C399.999451,302.131561 408.496948,289.909882 414.329041,275.140350 
	C424.165619,249.632477 425.512024,224.425323 417.575439,198.455994 
	C414.748444,191.535400 412.307861,184.834625 409.121399,178.509628 
	C397.179108,154.804794 378.803558,137.226517 355.063660,125.980621 
	C312.507538,105.821251 270.197906,107.242455 229.471085,131.218140 
	C204.382690,145.987564 186.776276,167.437286 177.348480,195.690308 
	C169.613800,219.653610 168.996765,243.318573 176.950821,267.003296 
	C181.354462,284.834442 191.814133,299.088104 203.823792,312.946289 
	C203.679153,313.693573 203.457443,313.882751 202.896942,313.840698 
	C198.619522,309.070770 194.503220,304.581604 190.688751,299.849152 
	C187.623093,296.045715 184.922943,291.947693 181.987091,287.630493 
	C178.288300,278.614624 174.098846,270.135254 171.157913,261.242950 
	C165.431427,243.928177 165.365433,226.051910 167.499390,208.105820 
	C175.272919,168.170914 197.072769,138.481934 232.893127,118.623611 
	C253.555252,108.250465 274.997528,102.674835 298.000671,102.881966 
	C319.929321,103.079422 340.461182,108.244102 360.275818,118.116928 
	C372.579865,125.104118 383.894501,132.897690 393.413025,143.058533 
	C411.019440,161.853119 422.787659,183.526886 426.135193,209.362534 
	C426.217773,209.999756 426.575073,210.601379 426.908142,212.022324 
	C426.859619,223.403336 427.387207,234.045593 426.399414,244.545288 
	C424.823090,261.300232 418.080444,276.450989 409.734222,290.905182 
z"/>
<path fill="#EBEBEB" opacity="1.000000" stroke="none" 
	d="
M410.220337,290.933533 
	C418.080444,276.450989 424.823090,261.300232 426.399414,244.545288 
	C427.387207,234.045593 426.859619,223.403336 427.053619,212.406708 
	C441.414276,211.993362 455.733307,211.998352 470.519470,212.007538 
	C470.990143,238.032089 470.993744,264.052429 470.984436,290.542664 
	C450.883179,290.995697 430.794830,290.978790 410.220337,290.933533 
z"/>
<path fill="#ECEDED" opacity="1.000000" stroke="none" 
	d="
M166.990204,208.071198 
	C165.365433,226.051910 165.431427,243.928177 171.157913,261.242950 
	C174.098846,270.135254 178.288300,278.614624 181.514557,287.636292 
	C162.419006,287.999329 143.722443,288.006653 125.025887,288.013977 
	C125.019806,261.657562 125.013725,235.301117 125.009872,208.477081 
	C138.835068,208.018524 152.658035,208.027542 166.990204,208.071198 
z"/>
<path fill="#E3E3E3" opacity="1.000000" stroke="none" 
	d="
M125.019333,288.481201 
	C143.722443,288.006653 162.419006,287.999329 181.588104,287.986176 
	C184.922943,291.947693 187.623093,296.045715 190.688751,299.849152 
	C194.503220,304.581604 198.619522,309.070770 203.021835,314.133514 
	C209.334808,319.712067 215.231445,324.822083 221.128082,329.932129 
	C219.727707,333.203918 217.394196,334.125824 213.755035,334.102997 
	C184.491928,333.919037 155.227158,334.000092 125.497864,334.000671 
	C125.026138,318.983643 125.019463,303.966034 125.019333,288.481201 
z"/>
<path fill="#088789" opacity="1.000000" stroke="none" 
	d="
M387.063263,313.642792 
	C387.334625,314.805206 387.644012,315.579285 387.968689,316.669556 
	C388.601746,328.013733 389.219482,339.041718 389.907867,350.532562 
	C389.943298,364.917969 380.620056,374.262390 371.945374,382.653687 
	C349.791534,404.083832 323.781433,414.977936 292.312531,405.763062 
	C279.540070,402.022949 266.805145,398.081055 253.875763,394.967773 
	C235.344559,390.505615 216.863342,391.037659 197.940201,398.081848 
	C201.299591,381.729736 208.631287,368.368469 220.004547,356.753235 
	C227.008759,352.269318 233.500305,347.266113 240.776978,344.026428 
	C252.126724,338.973328 264.349030,338.060852 276.736847,339.355286 
	C287.482544,340.478119 298.245453,341.493774 309.022797,342.237061 
	C316.724579,342.768250 324.270660,342.133575 331.177338,337.887848 
	C334.202728,336.028076 336.147064,337.961182 337.137024,343.962402 
	C337.322327,352.788361 334.217194,357.969116 325.392578,360.631744 
	C318.188873,362.805267 310.468323,363.799866 302.923340,364.144501 
	C296.523254,364.436798 290.046539,363.052094 283.266998,362.375885 
	C289.298737,368.578522 299.838776,373.957489 309.123230,374.956207 
	C331.930725,377.409607 352.036682,370.268372 370.181702,356.882812 
	C374.278656,353.860443 376.398529,349.570404 376.074646,344.315918 
	C375.739166,338.873260 375.374969,333.432373 375.306610,327.742676 
	C376.059052,325.425171 376.720093,323.376770 376.950195,321.281067 
	C377.257843,318.478882 377.070526,315.759491 373.067505,315.998260 
	C373.028168,315.669769 372.931152,315.336456 372.958130,315.013519 
	C373.404327,309.671539 377.255493,304.084229 380.917328,304.335602 
	C386.282867,304.703918 385.811737,309.720917 387.063263,313.642792 
z"/>
<path fill="#EEEEEE" opacity="1.000000" stroke="none" 
	d="
M177.422913,267.003235 
	C168.996765,243.318573 169.613800,219.653610 177.627136,196.072159 
	C179.400711,196.426178 180.661240,196.961472 181.922333,196.962799 
	C223.405746,197.006516 264.889313,197.027512 306.372345,196.893875 
	C308.014587,196.888596 309.651886,195.338745 311.556519,194.746262 
	C322.954620,213.544418 325.436005,233.223465 319.273438,253.944656 
	C318.891937,255.227341 317.371979,256.171448 316.381683,257.273071 
	C315.814606,255.935852 314.770905,254.604187 314.755249,253.260544 
	C314.619537,241.618546 314.678009,229.974396 314.652405,218.330917 
	C314.648560,216.583298 314.508606,214.835953 314.437805,213.228989 
	C303.297455,213.228989 292.761108,213.228989 281.769501,213.228989 
	C281.769501,228.059067 281.769501,242.465012 281.769501,257.464142 
	C265.944824,257.464142 250.575546,257.464142 234.671310,257.464142 
	C234.671310,261.032043 234.671310,264.003510 234.671310,266.974945 
	C215.745865,266.984344 196.820435,266.993744 177.422913,267.003235 
z"/>
<path fill="#0E898B" opacity="1.000000" stroke="none" 
	d="
M234.770584,267.436157 
	C234.671310,264.003510 234.671310,261.032043 234.671310,257.464142 
	C250.575546,257.464142 265.944824,257.464142 281.769501,257.464142 
	C281.769501,242.465012 281.769501,228.059067 281.769501,213.228989 
	C292.761108,213.228989 303.297455,213.228989 314.437805,213.228989 
	C314.508606,214.835953 314.648560,216.583298 314.652405,218.330917 
	C314.678009,229.974396 314.619537,241.618546 314.755249,253.260544 
	C314.770905,254.604187 315.814606,255.935852 316.381683,257.273071 
	C317.371979,256.171448 318.891937,255.227341 319.273438,253.944656 
	C325.436005,233.223465 322.954620,213.544418 311.447815,194.440414 
	C304.935364,184.862274 297.708588,176.369278 292.885223,166.679886 
	C282.959839,146.741226 294.766541,126.188766 316.808167,123.569206 
	C339.369873,120.887848 355.749969,130.455109 367.427521,149.341919 
	C375.932312,163.097183 379.628998,178.318192 381.479980,194.365158 
	C381.524933,194.923447 381.668640,195.234024 381.708496,195.881927 
	C381.722687,197.145233 381.840729,198.071198 381.877258,199.456573 
	C382.001709,221.056976 378.455353,241.018326 363.268158,257.609344 
	C368.725250,262.232086 370.514679,268.323944 370.863434,275.003479 
	C369.285126,282.316681 365.989655,288.428711 358.921875,291.826569 
	C350.576874,295.838470 340.811127,293.855347 334.815216,286.985687 
	C328.292969,279.513000 327.975189,269.994812 334.333252,260.245483 
	C340.653625,253.581116 347.988739,250.935303 355.931213,253.962921 
	C360.777008,255.810120 362.881805,254.035126 365.252838,250.824890 
	C375.326263,237.185760 378.817322,221.609161 378.826599,204.539185 
	C378.973724,188.064194 376.024231,172.697418 369.035828,158.166702 
	C357.861359,134.931976 340.655640,124.128929 317.839600,126.152695 
	C299.745636,127.757622 289.029785,142.129410 293.324463,159.746109 
	C294.476776,164.472870 296.871979,169.110886 299.583588,173.201736 
	C306.736176,183.992264 314.375580,194.460114 321.860718,205.426636 
	C331.223602,226.846817 330.994598,247.878494 321.779358,268.892944 
	C312.314209,287.270874 298.257782,300.750763 278.462189,307.102600 
	C251.627502,315.713104 227.248901,310.458221 205.754700,292.156830 
	C205.001297,291.515320 204.339264,290.745026 203.739288,289.955292 
	C203.499008,289.638977 203.542099,289.107422 203.186661,287.313263 
	C205.411270,288.862976 206.773422,289.817627 208.141342,290.763977 
	C229.664352,305.653931 252.675262,308.809631 277.376068,299.836548 
	C281.824158,298.220673 282.853882,295.660461 281.379364,291.068909 
	C266.235077,291.068909 250.984879,291.068909 234.869858,291.068909 
	C234.869858,283.047882 234.869858,275.472595 234.770584,267.436157 
M360.899963,286.481354 
	C367.356628,280.185120 368.885834,272.944946 365.289948,265.696716 
	C362.204437,259.477325 354.965149,255.491531 348.432312,256.415192 
	C340.871979,257.484131 335.192230,262.347900 333.454712,269.241028 
	C331.790466,275.843384 334.622986,283.373993 340.258484,287.329620 
	C346.335541,291.595184 353.159210,291.462830 360.899963,286.481354 
z"/>
<path fill="#ECEDED" opacity="1.000000" stroke="none" 
	d="
M371.342529,275.003479 
	C370.514679,268.323944 368.725250,262.232086 363.268158,257.609344 
	C378.455353,241.018326 382.001709,221.056976 382.348938,199.458221 
	C394.474548,198.949753 406.046997,198.899048 417.619446,198.848343 
	C425.512024,224.425323 424.165619,249.632477 414.343811,274.769043 
	C400.005096,275.019684 385.913361,275.011566 371.342529,275.003479 
z"/>
<path fill="#ECEDED" opacity="1.000000" stroke="none" 
	d="
M378.743256,204.983582 
	C378.817322,221.609161 375.326263,237.185760 365.252838,250.824890 
	C362.881805,254.035126 360.777008,255.810120 355.931213,253.962921 
	C347.988739,250.935303 340.653625,253.581116 334.441559,259.904785 
	C330.703217,256.999451 329.716278,260.969543 328.159637,262.439270 
	C327.286163,263.264008 327.390839,265.124725 327.153351,267.212860 
	C327.150970,268.290741 327.050049,268.674408 326.949158,269.058105 
	C326.949158,269.058105 327.032349,269.020721 326.798035,269.199005 
	C325.802277,270.621063 325.040802,271.864868 324.279327,273.108643 
	C323.646545,271.846802 323.013763,270.584961 322.080170,269.108032 
	C330.994598,247.878494 331.223602,226.846817 322.341797,205.410156 
	C341.436646,205.010178 360.089966,204.996872 378.743256,204.983582 
z"/>
<path fill="#DADADA" opacity="1.000000" stroke="none" 
	d="
M375.023315,327.990692 
	C375.374969,333.432373 375.739166,338.873260 376.074646,344.315918 
	C376.398529,349.570404 374.278656,353.860443 370.181702,356.882812 
	C352.036682,370.268372 331.930725,377.409607 309.123230,374.956207 
	C299.838776,373.957489 289.298737,368.578522 283.266998,362.375885 
	C290.046539,363.052094 296.523254,364.436798 302.923340,364.144501 
	C310.468323,363.799866 318.188873,362.805267 325.392578,360.631744 
	C334.217194,357.969116 337.322327,352.788361 337.203613,344.342834 
	C340.798035,342.975372 344.492920,342.166626 348.020905,340.894836 
	C351.906708,339.494049 355.639191,337.667847 360.128845,335.957703 
	C361.229980,335.921753 361.640686,335.955048 362.069977,336.312805 
	C361.724213,337.363892 361.359863,338.090485 360.658081,338.827820 
	C359.527100,339.543671 358.733551,340.248779 357.970276,340.975647 
	C358.000488,340.997437 357.951904,340.940674 357.710968,341.113098 
	C357.342865,341.850250 357.215698,342.414978 356.916016,343.276123 
	C356.657074,344.018311 356.570618,344.464050 356.339996,345.206512 
	C356.146759,347.011627 356.097717,348.520050 355.974609,350.394104 
	C355.914215,351.750122 355.927856,352.740417 355.747375,354.001770 
	C355.416168,356.921234 355.279053,359.569672 355.103821,362.955200 
	C357.264404,361.382263 358.701050,360.336365 360.420349,359.208923 
	C361.136597,358.749908 361.570190,358.372467 362.264526,357.945496 
	C362.738983,357.627838 362.952698,357.359711 363.118652,357.094177 
	C363.070862,357.096771 363.127502,357.173920 363.457092,357.089966 
	C367.193604,354.238647 371.719025,352.377563 372.034790,346.668213 
	C372.166107,345.417450 372.161255,344.493530 372.362427,343.376038 
	C372.575562,342.816956 372.582642,342.451416 372.686157,341.626740 
	C372.786133,337.112488 372.789703,333.057373 372.966553,328.716766 
	C373.767639,328.284393 374.395477,328.137543 375.023315,327.990692 
z"/>
<path fill="#126D70" opacity="1.000000" stroke="none" 
	d="
M294.274994,305.346436 
	C300.852020,300.651337 307.112671,296.146820 313.443665,291.591675 
	C313.443665,305.505951 313.443665,319.688293 313.443665,334.268860 
	C303.328491,334.268860 293.314728,334.268860 282.874390,334.268860 
	C282.874390,326.912292 282.769592,319.787354 282.985107,312.672119 
	C283.018219,311.579987 284.311737,310.148041 285.396179,309.539978 
	C288.136780,308.003174 291.090363,306.846161 294.274994,305.346436 
z"/>
<path fill="#088789" opacity="1.000000" stroke="none" 
	d="
M355.941467,353.730743 
	C355.927856,352.740417 355.914215,351.750122 356.407349,350.392273 
	C357.784882,348.659668 358.655609,347.294586 359.526337,345.929474 
	C358.512299,345.589569 357.498230,345.249695 356.484192,344.909790 
	C356.570618,344.464050 356.657074,344.018311 357.149414,343.097107 
	C357.687500,342.061340 357.819702,341.501007 357.951904,340.940674 
	C357.951904,340.940674 358.000488,340.997437 358.340881,340.983765 
	C359.452667,340.252411 360.224091,339.534760 360.995514,338.817108 
	C361.359863,338.090485 361.724213,337.363892 362.465637,336.317352 
	C364.082794,335.863007 365.322845,335.728546 367.977814,335.440704 
	C365.835022,332.836334 364.401428,331.093933 362.967865,329.351562 
	C362.313904,329.334015 361.659943,329.316437 361.006012,329.298889 
	C363.464722,324.587219 365.893494,319.859192 368.442810,315.197052 
	C368.633179,314.848907 369.686584,314.972687 370.338776,314.877106 
	C371.013855,315.463776 371.688904,316.050446 372.661743,317.098145 
	C371.411224,320.475342 369.862976,323.391541 368.057770,326.791656 
	C369.649017,327.534485 371.221130,328.268372 372.793274,329.002258 
	C372.789703,333.057373 372.786133,337.112488 372.525757,341.839539 
	C372.231445,342.864197 372.193939,343.216888 372.156433,343.569611 
	C372.161255,344.493530 372.166107,345.417450 371.670166,346.674500 
	C367.030029,349.242493 361.857513,350.660095 363.127502,357.173920 
	C363.127502,357.173920 363.070862,357.096771 362.866119,357.158569 
	C362.442169,357.478607 362.222961,357.736816 362.003784,357.995056 
	C361.570190,358.372467 361.136597,358.749908 360.242676,358.901733 
	C358.502014,357.027679 357.221741,355.379211 355.941467,353.730743 
M368.207367,340.076080 
	C368.322449,341.217896 368.437531,342.359711 368.552643,343.501526 
	C369.088318,343.355255 369.623993,343.208984 370.159668,343.062714 
	C369.662079,341.890991 369.164490,340.719238 368.207367,340.076080 
M364.314178,341.472626 
	C363.975281,342.020325 363.636383,342.568024 363.297485,343.115692 
	C363.571869,343.250732 363.846283,343.385773 364.120697,343.520813 
	C364.325806,342.984497 364.530945,342.448151 364.314178,341.472626 
z"/>
<path fill="#126D70" opacity="1.000000" stroke="none" 
	d="
M324.246948,273.477997 
	C325.040802,271.864868 325.802277,270.621063 326.793823,269.153625 
	C326.901733,276.358398 327.902283,283.447449 333.957977,289.633667 
	C327.072968,289.633667 320.965057,289.633667 314.907837,289.633667 
	C317.963135,284.451233 321.088867,279.149292 324.246948,273.477997 
z"/>
<path fill="#0E898B" opacity="1.000000" stroke="none" 
	d="
M372.966553,328.716736 
	C371.221130,328.268372 369.649017,327.534485 368.057770,326.791656 
	C369.862976,323.391541 371.411224,320.475342 372.934204,317.164490 
	C372.908905,316.769806 372.913452,316.368683 372.990479,316.183472 
	C377.070526,315.759491 377.257843,318.478882 376.950195,321.281067 
	C376.720093,323.376770 376.059052,325.425171 375.306580,327.742676 
	C374.395477,328.137543 373.767639,328.284393 372.966553,328.716736 
z"/>
<path fill="#0E898B" opacity="1.000000" stroke="none" 
	d="
M370.059998,314.610413 
	C369.686584,314.972687 368.633179,314.848907 368.442810,315.197052 
	C365.893494,319.859192 363.464722,324.587219 361.006012,329.298889 
	C361.659943,329.316437 362.313904,329.334015 362.967865,329.351562 
	C364.401428,331.093933 365.835022,332.836334 367.977814,335.440704 
	C365.322845,335.728546 364.082794,335.863007 362.447083,335.992889 
	C361.640686,335.955048 361.229980,335.921753 360.510132,335.904602 
	C360.503906,335.448883 360.806824,334.977051 361.309265,334.136169 
	C361.672516,333.446381 361.576508,333.203247 361.220703,333.037689 
	C360.525757,327.137573 360.840881,321.329163 364.550262,316.447571 
	C365.526337,315.163025 367.996948,315.014130 370.059998,314.610413 
z"/>
<path fill="#0E898B" opacity="1.000000" stroke="none" 
	d="
M221.433289,329.940796 
	C215.231445,324.822083 209.334808,319.712067 203.313263,314.309204 
	C203.457443,313.882751 203.679153,313.693573 203.962173,313.257812 
	C210.448105,318.536896 216.825363,324.007111 223.064117,329.789856 
	C222.925644,330.102386 222.950470,330.059845 222.950470,330.059875 
	C222.546478,330.023071 222.142471,329.986267 221.433289,329.940796 
z"/>
<path fill="#126D70" opacity="1.000000" stroke="none" 
	d="
M327.123169,268.918335 
	C327.050049,268.674408 327.150970,268.290741 327.199463,267.610565 
	C327.197052,267.802246 327.247101,268.290436 327.123169,268.918335 
z"/>
<path fill="#0E898B" opacity="1.000000" stroke="none" 
	d="
M222.912582,330.123474 
	C223.325974,330.101105 223.752426,330.057648 224.178879,330.014160 
	C224.187302,330.242035 224.195709,330.469879 224.204117,330.697754 
	C223.904449,330.620728 223.604797,330.543671 223.127808,330.263245 
	C222.950470,330.059845 222.925644,330.102386 222.912582,330.123474 
z"/>
<path fill="#088789" opacity="1.000000" stroke="none" 
	d="
M361.145935,333.268921 
	C361.576508,333.203247 361.672516,333.446381 361.381226,333.858887 
	C361.253662,333.950684 361.071198,333.500183 361.145935,333.268921 
z"/>
<path fill="#F6F6F6" opacity="1.000000" stroke="none" 
	d="
M417.575439,198.455994 
	C406.046997,198.899048 394.474548,198.949753 382.430420,198.998810 
	C381.840729,198.071198 381.722687,197.145233 381.749939,195.631378 
	C381.912750,194.692657 381.807281,194.383987 381.578735,194.117447 
	C379.628998,178.318192 375.932312,163.097183 367.427521,149.341919 
	C355.749969,130.455109 339.369873,120.887848 316.808167,123.569206 
	C294.766541,126.188766 282.959839,146.741226 292.885223,166.679886 
	C297.708588,176.369278 304.935364,184.862274 311.182800,194.202728 
	C309.651886,195.338745 308.014587,196.888596 306.372345,196.893875 
	C264.889313,197.027512 223.405746,197.006516 181.922333,196.962799 
	C180.661240,196.961472 179.400711,196.426178 177.861252,195.757980 
	C186.776276,167.437286 204.382690,145.987564 229.471085,131.218140 
	C270.197906,107.242455 312.507538,105.821251 355.063660,125.980621 
	C378.803558,137.226517 397.179108,154.804794 409.121399,178.509628 
	C412.307861,184.834625 414.748444,191.535400 417.575439,198.455994 
z"/>
<path fill="#F5F5F5" opacity="1.000000" stroke="none" 
	d="
M378.826599,204.539185 
	C360.089966,204.996872 341.436646,205.010178 322.302246,205.039948 
	C314.375580,194.460114 306.736176,183.992264 299.583588,173.201736 
	C296.871979,169.110886 294.476776,164.472870 293.324463,159.746109 
	C289.029785,142.129410 299.745636,127.757622 317.839600,126.152695 
	C340.655640,124.128929 357.861359,134.931976 369.035828,158.166702 
	C376.024231,172.697418 378.973724,188.064194 378.826599,204.539185 
z"/>
<path fill="#DADADA" opacity="1.000000" stroke="none" 
	d="
M360.613464,286.710876 
	C353.159210,291.462830 346.335541,291.595184 340.258484,287.329620 
	C334.622986,283.373993 331.790466,275.843384 333.454712,269.241028 
	C335.192230,262.347900 340.871979,257.484131 348.432312,256.415192 
	C354.965149,255.491531 362.204437,259.477325 365.289948,265.696716 
	C368.885834,272.944946 367.356628,280.185120 360.613464,286.710876 
M361.834503,268.061249 
	C359.223480,263.038971 355.110413,260.272491 349.430389,260.564728 
	C344.673798,260.809448 340.907837,263.131592 338.627899,267.443512 
	C335.869049,272.661163 336.940582,278.837280 341.213898,282.953796 
	C345.048676,286.647858 352.191315,287.330170 356.955902,284.457550 
	C362.050323,281.386078 363.932373,275.670013 361.834503,268.061249 
z"/>
<path fill="#ECEDED" opacity="1.000000" stroke="none" 
	d="
M381.479980,194.365158 
	C381.807281,194.383987 381.912750,194.692657 381.853760,195.294037 
	C381.668640,195.234024 381.524933,194.923447 381.479980,194.365158 
z"/>
<path fill="#0E898B" opacity="1.000000" stroke="none" 
	d="
M363.457092,357.089966 
	C361.857513,350.660095 367.030029,349.242493 371.533997,347.001343 
	C371.719025,352.377563 367.193604,354.238647 363.457092,357.089966 
z"/>
<path fill="#0E898B" opacity="1.000000" stroke="none" 
	d="
M355.747375,354.001770 
	C357.221741,355.379211 358.502014,357.027679 359.959991,358.983337 
	C358.701050,360.336365 357.264404,361.382263 355.103821,362.955200 
	C355.279053,359.569672 355.416168,356.921234 355.747375,354.001770 
z"/>
<path fill="#0E898B" opacity="1.000000" stroke="none" 
	d="
M356.339996,345.206512 
	C357.498230,345.249695 358.512299,345.589569 359.526337,345.929474 
	C358.655609,347.294586 357.784882,348.659668 356.481384,350.026611 
	C356.097717,348.520050 356.146759,347.011627 356.339996,345.206512 
z"/>
<path fill="#0E898B" opacity="1.000000" stroke="none" 
	d="
M360.658081,338.827820 
	C360.224091,339.534760 359.452667,340.252411 358.310638,340.961975 
	C358.733551,340.248779 359.527100,339.543671 360.658081,338.827820 
z"/>
<path fill="#0E898B" opacity="1.000000" stroke="none" 
	d="
M357.710968,341.113098 
	C357.819702,341.501007 357.687500,342.061340 357.321899,342.800690 
	C357.215698,342.414978 357.342865,341.850250 357.710968,341.113098 
z"/>
<path fill="#0E898B" opacity="1.000000" stroke="none" 
	d="
M372.362457,343.376038 
	C372.193939,343.216888 372.231445,342.864197 372.429352,342.298706 
	C372.582642,342.451416 372.575562,342.816956 372.362457,343.376038 
z"/>
<path fill="#0E898B" opacity="1.000000" stroke="none" 
	d="
M362.264526,357.945526 
	C362.222961,357.736816 362.442169,357.478607 362.913910,357.155975 
	C362.952698,357.359711 362.738983,357.627838 362.264526,357.945526 
z"/>
<path fill="#0E898B" opacity="1.000000" stroke="none" 
	d="
M368.437134,339.811798 
	C369.164490,340.719238 369.662079,341.890991 370.159668,343.062714 
	C369.623993,343.208984 369.088318,343.355255 368.552643,343.501526 
	C368.437531,342.359711 368.322449,341.217896 368.437134,339.811798 
z"/>
<path fill="#0E898B" opacity="1.000000" stroke="none" 
	d="
M364.525146,341.692230 
	C364.530945,342.448151 364.325806,342.984497 364.120697,343.520813 
	C363.846283,343.385773 363.571869,343.250732 363.297485,343.115692 
	C363.636383,342.568024 363.975281,342.020325 364.525146,341.692230 
z"/>
<path fill="#126D70" opacity="1.000000" stroke="none" 
	d="
M361.972229,268.432556 
	C363.932373,275.670013 362.050323,281.386078 356.955902,284.457550 
	C352.191315,287.330170 345.048676,286.647858 341.213898,282.953796 
	C336.940582,278.837280 335.869049,272.661163 338.627899,267.443512 
	C340.907837,263.131592 344.673798,260.809448 349.430389,260.564728 
	C355.110413,260.272491 359.223480,263.038971 361.972229,268.432556 
z"/>
</svg>